<svg width="40" height="40" viewBox="0 0 40 40">
<path d="M21.3575 5.57999C21.1824 5.39659 20.972 5.2506 20.7389 5.15085C20.5058 5.05111 20.2548 4.99968 20.0013 4.99968C19.7477 4.99968 19.4968 5.05111 19.2637 5.15085C19.0306 5.2506 18.8201 5.39659 18.645 5.57999L5.52003 19.33C5.26649 19.5955 5.09646 19.9295 5.03101 20.2907C4.96557 20.6519 5.0076 21.0244 5.15188 21.3619C5.29616 21.6995 5.53635 21.9873 5.84267 22.1896C6.14898 22.3919 6.50794 22.4998 6.87503 22.5H10V32.5C10 33.163 10.2634 33.7989 10.7323 34.2678C11.2011 34.7366 11.837 35 12.5 35H15C15.6631 35 16.299 34.7366 16.7678 34.2678C17.2366 33.7989 17.5 33.163 17.5 32.5V30C17.5 29.337 17.7634 28.7011 18.2323 28.2322C18.7011 27.7634 19.337 27.5 20 27.5C20.6631 27.5 21.299 27.7634 21.7678 28.2322C22.2366 28.7011 22.5 29.337 22.5 30V32.5C22.5 33.163 22.7634 33.7989 23.2323 34.2678C23.7011 34.7366 24.337 35 25 35H27.5C28.1631 35 28.799 34.7366 29.2678 34.2678C29.7366 33.7989 30 33.163 30 32.5V22.5H33.125C33.4923 22.5003 33.8516 22.3927 34.1583 22.1906C34.465 21.9885 34.7056 21.7007 34.8502 21.3631C34.9948 21.0255 35.037 20.6528 34.9717 20.2913C34.9063 19.9299 34.7362 19.5956 34.4825 19.33L21.3575 5.57999Z"/>
</svg>
